<?xml version="1.0" encoding="iso-8859-1"?>
<!-- Generator: Adobe Illustrator 16.0.0, SVG Export Plug-In . SVG Version: 6.00 Build 0)  -->
<!DOCTYPE svg PUBLIC "-//W3C//DTD SVG 1.1//EN" "http://www.w3.org/Graphics/SVG/1.1/DTD/svg11.dtd">
<svg version="1.1" id="Capa_1" xmlns="http://www.w3.org/2000/svg" xmlns:xlink="http://www.w3.org/1999/xlink" x="0px" y="0px"
	 width="945.301px" height="945.301px" viewBox="0 0 945.301 945.301" style="enable-background:new 0 0 945.301 945.301;"
	 xml:space="preserve">
<g>
	<g>
		<path d="M63.5,831.699c5,12.801,15.2,23,28,28c67.5,26.301,138.7,40,210.101,41.4l-279.5-279.5
			C23.401,693,37.201,764.301,63.5,831.699z"/>
		<path d="M881.901,69.3c-5-12.8-15.201-23-28-28C787.8,15.6,718.101,1.8,648.2,0l275,275.1C921.401,205.1,907.7,135.4,881.901,69.3
			z"/>
		<path d="M200.701,178.5C96,283.3,37.301,416.6,24.601,553.4L369.8,898.6c136.8-12.699,270.201-71.4,374.9-176.1
			c105.701-105.699,164.6-240.6,176.5-378.8L579.501,2.1C441.3,14,306.401,72.8,200.701,178.5z M665.001,254l4.199,4.2
			c9.801,9.8,9.801,25.6,0,35.4l-39.199,39.2l26.1,26.1c9.801,9.8,9.801,25.601,0,35.4l-4.199,4.2c-9.801,9.8-25.602,9.8-35.4,0
			l-26.1-26.101L512.2,450.6l26.1,26.099c9.801,9.801,9.801,25.602,0,35.4l-4.199,4.201c-9.801,9.799-25.6,9.799-35.4,0l-26-26.201
			l-78.2,78.201l26.101,26.1c9.8,9.799,9.8,25.6,0,35.4l-4.2,4.199c-9.8,9.801-25.601,9.801-35.4,0l-26.1-26.1l-39.2,39.199
			c-9.8,9.801-25.6,9.801-35.4,0l-4.2-4.199c-9.8-9.801-9.8-25.6,0-35.4l39.2-39.199l-26.1-26.102c-9.8-9.799-9.8-25.6,0-35.398
			l4.2-4.201c9.8-9.799,25.6-9.799,35.399,0l26.101,26.1l78.2-78.199L407,424.4c-9.8-9.8-9.8-25.6,0-35.399l4.2-4.2
			c9.8-9.8,25.6-9.8,35.4,0l26.1,26.1l78.201-78.2L524.8,306.6c-9.799-9.8-9.799-25.6,0-35.4l4.201-4.2c9.799-9.8,25.6-9.8,35.4,0
			l26.1,26.1l39.199-39.2C639.401,244.3,655.2,244.3,665.001,254z"/>
	</g>
	<path d="M301.601,901.199l44.1,44.102l35.4-35.4L369.8,898.6C347.101,900.801,324.3,901.6,301.601,901.199z"/>
</g>
<g>
</g>
<g>
</g>
<g>
</g>
<g>
</g>
<g>
</g>
<g>
</g>
<g>
</g>
<g>
</g>
<g>
</g>
<g>
</g>
<g>
</g>
<g>
</g>
<g>
</g>
<g>
</g>
<g>
</g>
</svg>
